# xmcd
# 
# Track frame offsets:
#     150
#     15653
#     32681
#     48000
#     67289
#     84221
#     99569
#     114363
#     134952
#     150380
# 
# Disc length: 2240
# 
# Revision: 6
# Processed by: cddbd v1.5.2PL0 Copyright (c) Steve Scherf et al.
# Submitted via: fre:ac v1.1beta1pre5
# 
DISCID=7a08be0a
DTITLE=Leela James - Fall for you
DYEAR=2014
DGENRE=Soul
TTITLE0=Who's gonna love you more
TTITLE1=Say that (feat. Anthony Hamilton)
TTITLE2=Give it
TTITLE3=Do me right
TTITLE4=Set me free
TTITLE5=Everything
TTITLE6=So good
TTITLE7=Stay with me
TTITLE8=Fall for you
TTITLE9=Save me (feat. Joe Ryan)
EXTD=
EXTT0=
EXTT1=
EXTT2=
EXTT3=
EXTT4=
EXTT5=
EXTT6=
EXTT7=
EXTT8=
EXTT9=
PLAYORDER=
